<svg width="500" height="500" viewBox="0 0 500 500" fill="none" xmlns="http://www.w3.org/2000/svg">
<rect width="500" height="500" fill="white"/>
<mask id="path-1-outside-1_117_33" maskUnits="userSpaceOnUse" x="89.5444" y="111.683" width="321" height="228" fill="black">
<rect fill="white" x="89.5444" y="111.683" width="321" height="228"/>
<path d="M243.643 123.683C274.039 123.683 299.976 142.771 310.122 169.614H319.625C363.368 169.614 398.828 205.074 398.828 248.816C398.828 292.558 363.368 328.019 319.625 328.019H314.689V328.02H176.367C175.116 328.085 173.857 328.119 172.59 328.119C133.353 328.119 101.544 296.311 101.544 257.073C101.545 217.836 133.353 186.027 172.59 186.027C172.769 186.027 172.947 186.029 173.125 186.03C177.414 150.896 207.35 123.683 243.643 123.683Z"/>
</mask>
<path d="M243.643 123.683C274.039 123.683 299.976 142.771 310.122 169.614H319.625C363.368 169.614 398.828 205.074 398.828 248.816C398.828 292.558 363.368 328.019 319.625 328.019H314.689V328.02H176.367C175.116 328.085 173.857 328.119 172.59 328.119C133.353 328.119 101.544 296.311 101.544 257.073C101.545 217.836 133.353 186.027 172.59 186.027C172.769 186.027 172.947 186.029 173.125 186.03C177.414 150.896 207.35 123.683 243.643 123.683Z" fill="#000091"/>
<path d="M243.643 123.683V112.606V112.606V123.683ZM310.122 169.614L299.76 173.53L302.467 180.691H310.122V169.614ZM319.625 169.614L319.626 158.538H319.625V169.614ZM398.828 248.816H409.904V248.816L398.828 248.816ZM314.689 328.019V316.942H303.612V328.019H314.689ZM314.689 328.02V339.096H325.766V328.02H314.689ZM176.367 328.02V316.943H176.077L175.787 316.958L176.367 328.02ZM172.59 328.119V339.196H172.59L172.59 328.119ZM101.544 257.073L90.4677 257.073V257.073H101.544ZM172.59 186.027L172.59 174.951H172.59V186.027ZM173.125 186.03L173.044 197.107L182.923 197.18L184.121 187.372L173.125 186.03ZM243.643 123.683V134.759C269.282 134.759 291.189 150.854 299.76 173.53L310.122 169.614L320.483 165.698C308.762 134.687 278.796 112.606 243.643 112.606V123.683ZM310.122 169.614V180.691H319.625V169.614V158.538H310.122V169.614ZM319.625 169.614L319.625 180.691C357.25 180.691 387.751 211.192 387.751 248.816L398.828 248.816L409.904 248.816C409.904 198.957 369.485 158.538 319.626 158.538L319.625 169.614ZM398.828 248.816H387.751C387.751 286.441 357.25 316.942 319.625 316.942V328.019V339.095C369.485 339.095 409.904 298.676 409.904 248.816H398.828ZM319.625 328.019V316.942H314.689V328.019V339.095H319.625V328.019ZM314.689 328.019H303.612V328.02H314.689H325.766V328.019H314.689ZM314.689 328.02V316.943H176.367V328.02V339.096H314.689V328.02ZM176.367 328.02L175.787 316.958C174.724 317.014 173.658 317.042 172.59 317.042L172.59 328.119L172.59 339.196C174.056 339.196 175.508 339.156 176.946 339.081L176.367 328.02ZM172.59 328.119V317.042C139.47 317.042 112.621 290.193 112.621 257.073H101.544H90.4677C90.4677 302.428 127.235 339.196 172.59 339.196V328.119ZM101.544 257.073L112.621 257.073C112.621 223.953 139.47 197.104 172.59 197.104V186.027V174.951C127.235 174.951 90.4679 211.718 90.4677 257.073L101.544 257.073ZM172.59 186.027L172.59 197.104C172.716 197.104 172.839 197.105 173.044 197.107L173.125 186.03L173.207 174.954C173.056 174.953 172.821 174.951 172.59 174.951L172.59 186.027ZM173.125 186.03L184.121 187.372C187.739 157.727 213.017 134.759 243.643 134.759V123.683V112.606C201.683 112.606 167.089 144.064 162.13 184.688L173.125 186.03Z" fill="white" mask="url(#path-1-outside-1_117_33)"/>
<path d="M254.252 253.267C266.148 236.405 291.154 236.406 303.049 253.268L348.469 317.656C362.422 337.436 348.275 364.727 324.069 364.726L233.223 364.723C209.017 364.721 194.872 337.43 208.826 317.65L254.252 253.267Z" fill="#C3010D" stroke="white" stroke-width="19.2638"/>
</svg>
